# AST/ASF file generated using VICON BodyLanguage
# -----------------------------------------------
:version 1.10
:name VICON
:units
  mass 1.0
  length 0.45
  angle deg
:documentation
   .ast/.asf automatically generated from VICON data using
   VICON BodyBuilder and BodyLanguage model FoxedUp or BRILLIANT.MOD
:root
   order TX TY TZ RX RY RZ
   axis XYZ
   position 0 0 0  
   orientation 0 0 0 
:bonedata
  begin
     id 1 
     name lhipjoint
     direction 0.645893 -0.654526 0.392961 
     length 2.38111 
     axis 0 0 0  XYZ
  end
  begin
     id 2 
     name lfemur
     direction 0.34202 -0.939693 0  
     length 6.6822  
     axis 0 0 20  XYZ
    dof rx ry rz
    limits (-160.0 20.0)
           (-70.0 70.0)
           (-60.0 70.0)
  end
  begin
     id 3 
     name ltibia
     direction 0.34202 -0.939693 0   
     length 6.93904   
     axis 0 0 20   XYZ
    dof rx
    limits (-10.0 170.0)
  end
  begin
     id 4 
     name lfoot
     direction 0.0694967 -0.190941 0.979138   
     length 2.13616   
     axis -90 7.62852e-016 20   XYZ
    dof rx rz
    limits (-45.0 90.0)
           (-70.0 20.0)
  end
  begin
     id 5 
     name ltoes
     direction 1.535e-011 -4.2202e-011 1   
     length 1.07536   
     axis -90 7.62852e-016 20   XYZ
    dof rx
    limits (-90.0 20.0)
  end
  begin
     id 6 
     name rhipjoint
     direction -0.700219 -0.612087 0.367481   
     length 2.54621  
     axis 0 0 0  XYZ 
  end
  begin
     id 7 
     name rfemur
     direction -0.34202 -0.939693 0   
     length 6.55353   
     axis 0 0 -20   XYZ
    dof rx ry rz
    limits (-160.0 20.0)
           (-70.0 70.0)
           (-70.0 60.0)
  end
  begin
     id 8 
     name rtibia
     direction -0.34202 -0.939693 0   
     length 6.8736   
     axis 0 0 -20   XYZ
    dof rx
    limits (-10.0 170.0)
 end
 begin
     id 9 
     name rfoot
     direction -0.0679995 -0.186827 0.980037   
     length 2.1218  
     axis -90 -7.62852e-016 -20   XYZ
    dof rx rz
    limits (-45.0 90.0)
           (-20.0 70.0)
  end
  begin
     id 10 
     name rtoes
     direction -1.53589e-011 -4.21772e-011 1   
     length 1.06864   
     axis -90 -7.62852e-016 -20   XYZ
    dof rx
    limits (-90.0 20.0)
  end
  begin
     id 11 
     name lowerback
     direction -0.0416607 0.996347 -0.0745409   
     length 2.12205   
     axis 0 0 0   XYZ
    dof rx ry rz
    limits (-20.0 45.0)
           (-30.0 30.0)
           (-30.0 30.0)
  end
  begin
     id 12 
     name upperback
     direction -0.000153993 0.999276 -0.0380568   
     length 2.12759   
     axis 0 0 0   XYZ
    dof rx ry rz
    limits (-20.0 45.0)
           (-30.0 30.0)
           (-30.0 30.0)
  end
  begin
     id 13 
     name thorax
     direction 0.0187671 0.999821 -0.00241421   
     length 2.13704   
     axis 0 0 0   XYZ
    dof rx ry rz
    limits (-20.0 45.0)
           (-30.0 30.0)
           (-30.0 30.0)
  end
  begin
     id 14 
     name lowerneck
     direction 0.0268157 0.964865 0.261374   
     length 1.65253   
     axis 0 0 0   XYZ
    dof rx ry rz
    limits (-20.0 45.0)
           (-30.0 30.0)
           (-30.0 30.0)
  end
  begin
     id 15 
     name upperneck
     direction 0.00263774 0.939908 -0.341418   
     length 1.72375   
     axis 0 0 0   XYZ
    dof rx ry rz
    limits (-20.0 45.0)
           (-30.0 30.0)
           (-30.0 30.0)
  end
  begin
     id 16
     name head
     direction -0.00526001 0.989001 -0.147818  
     length 1.74878  
     axis 0 0 0   XYZ
    dof rx ry rz
    limits (-20.0 45.0)
           (-30.0 30.0)
           (-30.0 30.0)
  end
  begin
     id 17 
     name lclavicle
     direction 0.881214 0.461162 -0.103884  
     length 3.25108  
     axis 0 0 0   XYZ
    dof ry rz
    limits (-20.0 10.0)
           (0.0 20.0)
  end
  begin
     id 18 
     name lhumerus
     direction 1 -4.4899e-011 3.38092e-027   
     length 4.87408   
     axis 180 -30 -90   XYZ
    dof rx ry rz
    limits (-60.0 90.0)
           (-90.0 90.0)
           (-90.0 90.0)
  end
  begin
     id 19
     name lradius
     direction 1 -4.48931e-011 9.96288e-027   
     length 2.76729   
     axis 180 -30 -90   XYZ
    dof rx
    limits (-10.0 170.0)
  end
  begin
     id 20
     name lwrist
     direction 1 -4.4896e-011 1.50617e-026   
     length 1.38364   
     axis -9.31234e-015 90 90   XYZ
    dof ry
    limits (-180.0 0.0)
 end
  begin
     id 21 
     name lhand
     direction 1 -4.49038e-011 3.01286e-026   
     length 0.98922   
     axis -1.92217e-014 90 90   XYZ
    dof rx rz
    limits (-90.0 90.0)
           (-45.0 45.0)
  end
  begin
     id 22 
     name lfingers
     direction 1 -4.49051e-011 6.02588e-026   
     length 0.797535   
     axis -3.84436e-014 90 90   XYZ
    dof rx
    limits (0.0 90.0)
  end
  begin
     id 23
     name lthumb
     direction 0.707107 -6.34901e-011 0.707107   
     length 1.14511   
     axis -90 45 2.19363e-014   XYZ
    dof rx rz
    limits (-45.0 45.0)
           (-45.0 45.0)
  end
  begin
     id 24 
     name rclavicle
     direction -0.893894 0.441652 -0.0767889   
     length 3.29361  
     axis 0 0 0   XYZ 
    dof ry rz
    limits (-10.0 20.0)
           (-20.0 0.0)
  end
  begin
     id 25 
     name rhumerus
     direction -1 -4.48945e-011 8.0491e-028  
     length 4.71404   
     axis 180 30 90   XYZ
    dof rx ry rz
    limits (-90.0 60.0)
           (-90.0 90.0)
           (-90.0 90.0)
  end
  begin
     id 26 
     name rradius
     direction -1 -4.48986e-011 9.27795e-027   
     length 2.83468   
     axis 180 30 90   XYZ
    dof rx
    limits (-10.0 170.0)
  end
  begin
     id 27 
     name rwrist
     direction -1 -4.49029e-011 1.5064e-026   
     length 1.41734   
     axis -9.31234e-015 -90 -90   XYZ
    dof ry
    limits (-180.0 0.0)
  end
  begin
     id 28
     name rhand
     direction -1 -4.48857e-011 3.01165e-026   
     length 0.868195   
     axis -1.92217e-014 -90 -90   XYZ
    dof rx rz
    limits (-90.0 90.0)
           (-45.0 45.0)
  end
  begin
     id 29
     name rfingers
     direction -1 -4.49048e-011 6.02585e-026   
     length 0.699961   
     axis -3.84436e-014 -90 -90   XYZ
    dof rx
    limits (0.0 90.0)
  end
  begin
     id 30
     name rthumb
     direction -0.707107 -6.34854e-011 0.707107   
     length 1.00501   
     axis -90 -45 -2.19363e-014   XYZ
    dof rx rz
    limits (-45.0 45.0)
           (-45.0 45.0)
  end
:hierarchy
  begin
    root lhipjoint rhipjoint lowerback
    lhipjoint lfemur
    lfemur ltibia
    ltibia lfoot
    lfoot ltoes
    rhipjoint rfemur
    rfemur rtibia
    rtibia rfoot
    rfoot rtoes
    lowerback upperback
    upperback thorax
    thorax lowerneck lclavicle rclavicle
    lowerneck upperneck
    upperneck head
    lclavicle lhumerus
    lhumerus lradius
    lradius lwrist
    lwrist lhand lthumb
    lhand lfingers
    rclavicle rhumerus
    rhumerus rradius
    rradius rwrist
    rwrist rhand rthumb
    rhand rfingers
  end

#!OML:ASF H:\ManfredObstacles\Project 1\Capture day 2\Session 1\male.ASF
:FULLY-SPECIFIED
:DEGREES
52
root 1.27151 13.7179 25.9534 -180.226 -8.37929 179.37
lowerback 18.3352 2.56784 -3.04266
upperback 9.61889 1.19754 -0.896764
thorax -0.0210951 -0.192363 0.557793
lowerneck -34.1995 -2.12493 -2.11281
upperneck 38.8585 -5.76636 3.23548
head 21.9035 -2.45572 0.257423
rclavicle 4.77083e-015 1.59028e-015
rhumerus -19.3264 10.5559 -85.1274
rradius 55.7764
rwrist 15.2261
rhand -12.6006 -2.02325
rfingers 7.12502
rthumb 13.4782 -31.5671
lclavicle 4.77083e-015 1.59028e-015
lhumerus -25.5594 -14.3724 83.8202
lradius 44.5693
lwrist -27.1801
lhand -15.0703 7.70441
lfingers 7.12502
lthumb 11.0969 37.391
rfemur -39.7843 -8.13922 23.6759
rtibia 99.9456
rfoot -1.1535 -18.267
rtoes -12.7335
lfemur -48.4479 -2.7122 -26.517
ltibia 63.8039
lfoot 2.64073 20.6435
ltoes 5.51993
53
root 1.26877 13.6052 25.8702 -180.105 -8.46293 179.313
lowerback 19.0148 2.59632 -3.03491
upperback 9.87255 1.10993 -0.933483
thorax -0.0917187 -0.277277 0.522588
lowerneck -34.4754 -2.20617 -2.11705
upperneck 38.5075 -5.77113 3.29144
head 21.7378 -2.41824 0.294326
rclavicle -9.93923e-015 1.86858e-014
rhumerus -18.5158 9.96839 -84.9249
rradius 54.8951
rwrist 15.844
rhand -12.7739 -2.14861
rfingers 7.12502
rthumb 13.3111 -31.7035
lclavicle -9.93923e-015 1.86858e-014
lhumerus -24.375 -14.2417 83.6199
lradius 43.8226
lwrist -27.7431
lhand -15.0724 7.81241
lfingers 7.12502
lthumb 11.0949 37.4991
rfemur -41.7936 -7.55477 23.5626
rtibia 101.428
rfoot -2.55735 -18.4894
rtoes -14.9279
lfemur -49.6548 -2.82298 -26.5729
ltibia 66.1129
lfoot 2.26393 20.8508
ltoes 4.29937
54
root 1.26772 13.4927 25.7898 -179.926 -8.50614 179.308
lowerback 19.6565 2.64217 -2.98439
upperback 10.1033 1.05897 -0.962586
thorax -0.165185 -0.339782 0.465817
lowerneck -34.6825 -2.30314 -2.16371
upperneck 38.1703 -5.82143 3.40768
head 21.5734 -2.39943 0.356314
rclavicle 5.96354e-016 -4.25399e-014
rhumerus -17.7519 9.32489 -84.7251
rradius 54.0052
rwrist 16.4941
rhand -13.0149 -2.19033
rfingers 7.12502
rthumb 13.0788 -31.7603
lclavicle 5.96354e-016 -4.25399e-014
lhumerus -23.1714 -14.1449 83.4144
lradius 43.0425
lwrist -28.3384
lhand -15.0456 7.88031
lfingers 7.12502
lthumb 11.1207 37.5656
rfemur -43.8679 -6.83302 23.5077
rtibia 102.688
rfoot -3.95052 -18.7813
rtoes -17.2393
lfemur -50.9385 -2.86216 -26.5653
ltibia 68.3905
lfoot 1.9024 20.9896
ltoes 3.0342
55
root 1.26798 13.3815 25.712 -179.705 -8.51511 179.344
lowerback 20.2463 2.70988 -2.92688
upperback 10.3374 1.04164 -0.961782
thorax -0.207591 -0.386028 0.431042
lowerneck -34.863 -2.40912 -2.2335
upperneck 37.8283 -5.88172 3.53801
head 21.4035 -2.38725 0.425955
rclavicle 9.74045e-015 -1.03368e-014
rhumerus -16.964 8.66876 -84.4883
rradius 53.1124
rwrist 17.0821
rhand -13.182 -2.20808
rfingers 7.12502
rthumb 12.9178 -31.7883
lclavicle 9.74045e-015 -1.03368e-014
lhumerus -21.903 -14.0237 83.2302
lradius 42.2085
lwrist -28.9986
lhand -15.0026 7.88614
lfingers 7.12502
lthumb 11.1623 37.5692
rfemur -45.9746 -6.01661 23.4878
rtibia 103.729
rfoot -5.32142 -19.1766
rtoes -19.3809
lfemur -52.2386 -2.82797 -26.5153
ltibia 70.5883
lfoot 1.51657 21.1176
ltoes 1.81793
56
root 1.26954 13.2714 25.6369 -179.463 -8.50212 179.4
lowerback 20.8314 2.79384 -2.86539
upperback 10.5633 1.04717 -0.949922
thorax -0.254733 -0.420588 0.401367
lowerneck -34.953 -2.50748 -2.31732
upperneck 37.4648 -5.94667 3.708
head 21.2016 -2.37677 0.516494
rclavicle 2.38542e-015 4.25399e-014
rhumerus -16.1786 8.01533 -84.2492
rradius 52.2288
rwrist 17.5408
rhand -13.3099 -2.24691
rfingers 7.12502
rthumb 12.7945 -31.8348
lclavicle 2.38542e-015 4.25399e-014
lhumerus -20.5923 -13.8985 83.0551
lradius 41.3318
lwrist -29.6798
lhand -14.942 7.83589
lfingers 7.12502
lthumb 11.2207 37.5158
rfemur -48.0769 -5.15325 23.4694
rtibia 104.565
rfoot -6.69335 -19.6968
rtoes -21.1752
lfemur -53.4955 -2.73051 -26.4503
ltibia 72.6667
lfoot 1.07539 21.2836
ltoes 0.727239
